<svg width="1256" height="1256" viewBox="0 0 1256 1256" fill="none" xmlns="http://www.w3.org/2000/svg">
<rect x="1.01562" y="266.008" width="320" height="320" transform="rotate(-15 1.01562 266.008)" fill="white"/>
<rect x="92.0352" y="605.969" width="320" height="320" transform="rotate(-15 92.0352 605.969)" fill="#FFA630"/>
<rect x="432.125" y="514.914" width="320" height="320" transform="rotate(-15 432.125 514.914)" fill="white"/>
<rect x="772.047" y="423.758" width="320" height="320" transform="rotate(-15 772.047 423.758)" fill="#000000"/>
<rect x="183.137" y="945.977" width="320" height="320" transform="rotate(-15 183.137 945.977)" fill="#000000"/>
<rect x="523.145" y="854.867" width="320" height="320" transform="rotate(-15 523.145 854.867)" fill="#000000"/>
<rect x="863.148" y="763.766" width="320" height="320" transform="rotate(-15 863.148 763.766)" fill="#FFA630"/>
<rect x="340.938" y="174.859" width="320" height="320" transform="rotate(-15 340.938 174.859)" fill="#000000"/>
<rect x="680.941" y="83.75" width="320" height="320" transform="rotate(-15 680.941 83.75)" fill="#FFA630"/>
<path d="M934.99 131.634L865.82 249.555L806.388 215.786" stroke="#000000" stroke-width="24" stroke-linecap="round" stroke-linejoin="round"/>
<path d="M1117.2 811.642L1048.03 929.563L988.595 895.794" stroke="#000000" stroke-width="24" stroke-linecap="round" stroke-linejoin="round"/>
<path d="M346.084 653.845L276.914 771.766L217.482 737.997" stroke="#000000" stroke-width="24" stroke-linecap="round" stroke-linejoin="round"/>
<path d="M478.105 254.055L595.681 321.937M502.952 346.784L570.834 229.208" stroke="white" stroke-width="24" stroke-linecap="round" stroke-linejoin="round"/>
<path d="M909.219 502.953L1026.79 570.835M934.065 595.682L1001.95 478.106" stroke="white" stroke-width="24" stroke-linecap="round" stroke-linejoin="round"/>
<path d="M660.316 934.062L777.892 1001.94M685.163 1026.79L753.045 909.216" stroke="white" stroke-width="24" stroke-linecap="round" stroke-linejoin="round"/>
<path d="M320.309 1025.17L437.884 1093.05M345.155 1117.9L413.037 1000.33" stroke="white" stroke-width="24" stroke-linecap="round" stroke-linejoin="round"/>
</svg>
